<?xml version="1.0" encoding="UTF-8"?>
<svg width="14px" height="14px" viewBox="0 0 14 14" version="1.1" xmlns="http://www.w3.org/2000/svg" xmlns:xlink="http://www.w3.org/1999/xlink">
    <!-- Generator: Sketch 50.2 (55047) - http://www.bohemiancoding.com/sketch -->
    <title>el-icon-close</title>
    <desc>Created with Sketch.</desc>
    <defs></defs>
    <g id="Page-1" stroke="none" stroke-width="1" fill="none" fill-rule="evenodd">
        <g id="0904弹窗" transform="translate(-1013.000000, -2308.000000)" fill="#757985">
            <g id="Group-34-Copy" transform="translate(342.000000, 2267.000000)">
                <g id="Group-17">
                    <path d="M678,46.6321955 L683.347465,41.2847309 C683.725533,40.9066626 684.335578,40.9037379 684.71592,41.28408 C685.093629,41.6617888 685.094043,42.2737619 684.715269,42.6525354 L679.367805,48 L684.715269,53.3474646 C685.093337,53.7255328 685.096262,54.3355779 684.71592,54.71592 C684.338211,55.0936287 683.726238,55.0940426 683.347465,54.7152691 L678,49.3678045 L672.652535,54.7152691 C672.274467,55.0933374 671.664422,55.0962621 671.28408,54.71592 C670.906371,54.3382112 670.905957,53.7262381 671.284731,53.3474646 L676.632195,48 L671.284731,42.6525354 C670.906663,42.2744672 670.903738,41.6644221 671.28408,41.28408 C671.661789,40.9063713 672.273762,40.9059574 672.652535,41.2847309 L678,46.6321955 Z" id="el-icon-close"></path>
                </g>
            </g>
        </g>
    </g>
</svg>